# Face3D Studio AI
# OBJ Export

v 0.537272 0.386729 -0.025658
v 0.522498 0.431656 -0.049906
v 0.534574 0.417914 -0.026618
v 0.526153 0.475622 -0.033508
v 0.522101 0.445248 -0.053173
v 0.526850 0.462644 -0.049764
v 0.542723 0.505761 -0.026078
v 0.507448 0.508788 0.046365
v 0.547755 0.544136 -0.019791
v 0.547417 0.562864 -0.021743
v 0.554079 0.623727 -0.014334
v 0.537751 0.380738 -0.024280
v 0.539193 0.374738 -0.021259
v 0.541218 0.370616 -0.016458
v 0.541099 0.370119 -0.013072
v 0.539850 0.361994 -0.013653
v 0.539295 0.352205 -0.015171
v 0.540048 0.342035 -0.013220
v 0.544021 0.327192 -0.004355
v 0.526006 0.424257 -0.045199
v 0.523099 0.424802 -0.029062
v 0.498126 0.560790 0.108017
v 0.528619 0.496126 0.023748
v 0.519847 0.495525 0.029300
v 0.512490 0.497242 0.036332
v 0.506660 0.505236 0.050089
v 0.535614 0.499536 0.019772
v 0.513523 0.535491 0.025924
v 0.523488 0.534116 0.019662
v 0.505696 0.533137 0.033939
v 0.502063 0.527553 0.040654
v 0.501803 0.498662 0.057813
v 0.522588 0.319732 0.023878
v 0.506390 0.511944 0.051243
v 0.500678 0.507807 0.113770
v 0.500050 0.509978 0.072201
v 0.507340 0.446472 0.016614
v 0.528531 0.390897 -0.018396
v 0.532322 0.376320 -0.014194
v 0.522986 0.388601 -0.006058
v 0.520334 0.384361 0.006482
v 0.528172 0.377012 -0.004726
v 0.525540 0.376638 0.005985
v 0.515409 0.363010 0.028234
v 0.516564 0.432491 -0.045918
v 0.515317 0.445441 -0.048222
v 0.492406 0.542123 0.050420
v 0.525048 0.478046 0.006397
v 0.510718 0.437756 -0.012449
v 0.512609 0.445080 -0.009326
v 0.491456 0.450327 0.044112
v 0.520096 0.461712 -0.042049
v 0.500367 0.555392 0.020884
v 0.493836 0.551529 0.036101
v 0.497201 0.583694 0.083832
v 0.531101 0.544032 -0.007548
v 0.532560 0.528941 0.017983
v 0.510510 0.377731 0.033925
v 0.520526 0.393630 0.136399
v 0.516742 0.429602 -0.012622
v 0.522327 0.424637 -0.018679
v 0.520730 0.375431 0.029440
v 0.522630 0.375136 0.024170
v 0.492194 0.560967 0.042720
v 0.513046 0.432352 -0.007609
v 0.511919 0.553927 0.005814
v 0.509478 0.565568 0.004339
v 0.511991 0.614512 0.026046
v 0.493318 0.573171 0.060445
v 0.509949 0.591941 0.014577
v 0.491595 0.549172 0.061291
v 0.493281 0.554199 0.082881
v 0.529864 0.382857 -0.017105
v 0.525323 0.382256 -0.005665
v 0.522713 0.380288 0.005332
v 0.519068 0.427022 -0.012534
v 0.521649 0.375264 0.026349
v 0.522178 0.370884 0.018306
v 0.523624 0.374922 0.023321
v 0.515151 0.432817 -0.026135
v 0.528250 0.373915 0.007042
v 0.530878 0.373272 -0.001334
v 0.535035 0.372036 -0.009519
v 0.533382 0.330518 0.001657
v 0.530572 0.344915 -0.006514
v 0.530440 0.355031 -0.007876
v 0.532074 0.364484 -0.006239
v 0.534700 0.371556 -0.005994
v 0.527769 0.373692 0.009523
v 0.525231 0.370404 0.008713
v 0.522840 0.365861 0.008134
v 0.521300 0.360178 0.011070
v 0.510630 0.399101 0.011561
v 0.516618 0.454931 0.153692
v 0.530020 0.420705 -0.033293
v 0.526004 0.374366 0.017805
v 0.523924 0.372788 0.017397
v 0.524874 0.419526 -0.018892
v 0.517310 0.424699 -0.003548
v 0.523545 0.421960 -0.019167
v 0.517841 0.471214 0.014977
v 0.505735 0.463533 0.025297
v 0.513536 0.439556 -0.003578
v 0.501065 0.602064 0.055278
v 0.498405 0.586417 0.037909
v 0.498110 0.566831 0.023930
v 0.519307 0.351153 0.020390
v 0.526192 0.561892 -0.010334
v 0.526789 0.592659 -0.003943
v 0.528978 0.621032 0.002153
v 0.508257 0.500426 0.044097
v 0.496766 0.491185 0.067728
v 0.540052 0.503374 0.018753
v 0.498937 0.523668 0.054331
v 0.529458 0.485949 -0.000144
v 0.510853 0.442020 -0.024217
v 0.491728 0.483427 0.084204
v 0.495825 0.480871 0.056714
v 0.500528 0.474690 0.041698
v 0.513594 0.475085 0.028907
v 0.524651 0.479602 0.019925
v 0.532145 0.485342 0.012004
v 0.536094 0.502742 -0.017307
v 0.488315 0.457467 0.082004
v 0.496322 0.527357 0.062532
v 0.522282 0.424991 -0.042153
v 0.521870 0.465140 0.001987
v 0.511333 0.509256 0.147027
v 0.536998 0.492111 0.006904
v 0.515953 0.439149 0.005615
v 0.504353 0.512749 0.055020
v 0.513806 0.450955 -0.020729
v 0.518102 0.425639 0.148048
v 0.542109 0.508200 0.021587
v 0.516350 0.457750 -0.032806
v 0.511917 0.358011 0.076638
v 0.521684 0.345432 0.093806
v 0.498697 0.455368 0.119365
v 0.508485 0.376982 0.093646
v 0.497048 0.532207 0.101398
v 0.523578 0.307778 0.030644
v 0.526707 0.421499 -0.031105
v 0.516528 0.456259 0.009085
v 0.499678 0.508821 0.086038
v 0.512679 0.503870 0.036233
v 0.519642 0.502196 0.030283
v 0.520862 0.368384 0.021175
v 0.490890 0.432411 0.083649
v 0.536049 0.286783 0.025083
v 0.525595 0.311629 0.057611
v 0.524070 0.326126 0.074042
v 0.549850 0.592840 -0.018611
v 0.550985 0.279688 0.012422
v 0.527634 0.502747 0.025598
v 0.535085 0.504988 0.023314
v 0.539779 0.506745 0.022964
v 0.496273 0.531213 0.075281
v 0.534814 0.517350 0.022131
v 0.527017 0.520694 0.024037
v 0.518554 0.521521 0.028618
v 0.511666 0.519599 0.035081
v 0.508312 0.516440 0.040538
v 0.502916 0.537312 0.130386
v 0.509152 0.506374 0.042013
v 0.536317 0.407413 -0.024108
v 0.514648 0.405729 0.000883
v 0.515095 0.431532 -0.016658
v 0.525027 0.407824 -0.016828
v 0.547765 0.524523 -0.019741
v 0.516441 0.339555 0.061699
v 0.520207 0.324129 0.046633
v 0.531684 0.294490 0.013813
v 0.521413 0.366350 0.116649
v 0.539698 0.512119 0.021882
v 0.527449 0.481817 -0.016788
v 0.546802 0.287522 0.001862
v 0.528484 0.297917 0.040625
v 0.501270 0.428096 0.116225
v 0.530375 0.372859 0.001836
v 0.527471 0.367527 0.001467
v 0.525316 0.360214 0.000763
v 0.524337 0.351073 0.002945
v 0.524699 0.339598 0.011354
v 0.524062 0.375922 0.016180
v 0.521712 0.377773 0.017936
v 0.519739 0.380024 0.019179
v 0.509009 0.389601 0.024086
v 0.491588 0.423882 0.057817
v 0.532956 0.495178 -0.008281
v 0.541452 0.520351 0.008735
v 0.540310 0.518201 0.017108
v 0.526454 0.374265 0.016343
v 0.499909 0.393668 0.073279
v 0.541492 0.520911 -0.007451
v 0.524481 0.330793 0.017732
v 0.532432 0.477156 -0.041578
v 0.530755 0.488280 -0.027010
v 0.537460 0.490663 -0.033516
v 0.520424 0.462057 -0.013788
v 0.544795 0.300207 -0.002981
v 0.544619 0.314876 -0.003496
v 0.532716 0.319500 0.005374
v 0.512647 0.360130 0.037098
v 0.511125 0.429017 0.012491
v 0.518393 0.344292 0.028187
v 0.497665 0.432275 0.027822
v 0.505865 0.416274 0.019949
v 0.496214 0.412488 0.040458
v 0.530701 0.306239 0.008586
v 0.518787 0.455227 -0.004344
v 0.511737 0.352304 0.049561
v 0.517988 0.335740 0.037601
v 0.506475 0.377725 0.042179
v 0.496300 0.410700 0.085450
v 0.503538 0.377524 0.055691
v 0.505154 0.402126 0.110501
v 0.503872 0.400400 0.029886
v 0.524950 0.473571 -0.006692
v 0.512278 0.435608 -0.027184
v 0.512156 0.433043 -0.015690
v 0.512079 0.444430 -0.035749
v 0.533003 0.534025 0.010077
v 0.518635 0.541973 0.015672
v 0.507094 0.542992 0.023597
v 0.499526 0.540027 0.033987
v 0.496809 0.533538 0.044144
v 0.502260 0.511276 0.061550
v 0.498957 0.481690 0.118494
v 0.502864 0.492238 0.050565
v 0.507819 0.487780 0.040080
v 0.517231 0.486534 0.030308
v 0.527424 0.488743 0.022369
v 0.534948 0.493031 0.016659
v 0.539468 0.497378 0.012670
v 0.515695 0.482308 0.154041
v 0.514468 0.429822 -0.011350
v 0.522417 0.470085 -0.023487
v 0.513459 0.434507 -0.038054
v 0.520447 0.427245 -0.037180
v 0.516287 0.431910 -0.033468
v 0.517633 0.425848 -0.010065
v 0.520660 0.425940 -0.040279
v 0.524568 0.422629 -0.030077
v 0.542961 0.508031 0.017268
v 0.542932 0.505080 0.008274
v 0.540691 0.502736 0.000348
v 0.506908 0.514023 0.045481
v 0.501535 0.521492 0.048390
v 0.541335 0.474873 -0.043346
v 0.633422 0.506721 -0.025492
v 0.540878 0.422661 -0.036655
v 0.698583 0.563696 -0.002714
v 0.600243 0.496156 -0.022236
v 0.610384 0.494171 -0.026122
v 0.621139 0.494302 -0.027852
v 0.639030 0.503375 -0.025900
v 0.591862 0.499848 -0.016387
v 0.614742 0.540216 -0.032022
v 0.602580 0.538120 -0.025857
v 0.627148 0.537728 -0.033141
v 0.636363 0.531451 -0.031883
v 0.647546 0.495245 -0.023697
v 0.586655 0.308163 -0.009630
v 0.638894 0.511953 -0.023923
v 0.697559 0.501915 0.001966
v 0.663011 0.507082 -0.019534
v 0.599323 0.441058 -0.029829
v 0.550517 0.388955 -0.030544
v 0.552119 0.374344 -0.025376
v 0.567692 0.382770 -0.031115
v 0.580999 0.377643 -0.027898
v 0.566004 0.373104 -0.026631
v 0.578216 0.371743 -0.023156
v 0.600292 0.354143 -0.015889
v 0.531021 0.431059 -0.052274
v 0.532260 0.444349 -0.055831
v 0.650056 0.544898 -0.035765
v 0.580131 0.475716 -0.023736
v 0.568733 0.433144 -0.041011
v 0.572103 0.440925 -0.038806
v 0.636554 0.441740 -0.032802
v 0.536419 0.460845 -0.051778
v 0.616486 0.560094 -0.038715
v 0.634946 0.555695 -0.038716
v 0.679235 0.589075 -0.015493
v 0.569661 0.544480 -0.026956
v 0.593071 0.531248 -0.018842
v 0.608269 0.368319 -0.019421
v 0.693739 0.374125 0.033322
v 0.561686 0.425329 -0.033929
v 0.552632 0.421708 -0.029260
v 0.599923 0.370170 -0.016789
v 0.597083 0.369949 -0.016534
v 0.642386 0.565833 -0.037042
v 0.572367 0.427474 -0.035572
v 0.594949 0.556782 -0.035084
v 0.595615 0.568843 -0.037853
v 0.618277 0.620646 -0.030856
v 0.660849 0.576296 -0.027744
v 0.605693 0.595835 -0.034152
v 0.659913 0.552216 -0.031021
v 0.679066 0.555258 -0.017226
v 0.551199 0.381009 -0.029179
v 0.566575 0.377667 -0.029294
v 0.579426 0.374647 -0.026176
v 0.560084 0.422968 -0.029854
v 0.598383 0.370040 -0.016436
v 0.590526 0.365991 -0.017802
v 0.595627 0.369832 -0.016178
v 0.550437 0.429561 -0.045654
v 0.577578 0.369832 -0.020595
v 0.565719 0.370269 -0.021821
v 0.553297 0.370467 -0.020964
v 0.559479 0.327039 -0.009421
v 0.554388 0.342400 -0.018661
v 0.553239 0.352677 -0.020390
v 0.552923 0.362556 -0.018735
v 0.553167 0.369960 -0.017800
v 0.577624 0.369733 -0.018223
v 0.578955 0.366343 -0.019072
v 0.580739 0.361436 -0.020517
v 0.582500 0.355765 -0.019786
v 0.588901 0.392333 -0.027994
v 0.711464 0.442027 0.038897
v 0.587107 0.369702 -0.016846
v 0.588537 0.368059 -0.017398
v 0.549146 0.416911 -0.029301
v 0.571287 0.419757 -0.025804
v 0.550700 0.419170 -0.029380
v 0.591772 0.467924 -0.025351
v 0.608785 0.458488 -0.029431
v 0.576264 0.434936 -0.033940
v 0.653023 0.608828 -0.025708
v 0.637244 0.590601 -0.033067
v 0.620426 0.571975 -0.039375
v 0.589207 0.342892 -0.015838
v 0.571022 0.563220 -0.031611
v 0.577731 0.594780 -0.029230
v 0.586319 0.624757 -0.026484
v 0.632090 0.497006 -0.027428
v 0.659711 0.485871 -0.022841
v 0.586149 0.503271 -0.013357
v 0.648680 0.524646 -0.028812
v 0.571528 0.484374 -0.024200
v 0.557545 0.438449 -0.047363
v 0.675960 0.475018 -0.018302
v 0.648547 0.475041 -0.028376
v 0.630964 0.470081 -0.030479
v 0.609384 0.473112 -0.026185
v 0.595030 0.479286 -0.021819
v 0.584343 0.485625 -0.019270
v 0.552964 0.502369 -0.027564
v 0.672484 0.446201 -0.020134
v 0.658205 0.527194 -0.028515
v 0.531187 0.423976 -0.047223
v 0.576083 0.462401 -0.027167
v 0.715568 0.504201 0.028546
v 0.575583 0.492547 -0.017458
v 0.580846 0.434448 -0.024610
v 0.644506 0.512854 -0.023838
v 0.561479 0.447748 -0.044221
v 0.705654 0.409207 0.037998
v 0.587535 0.507731 -0.012020
v 0.548463 0.455691 -0.049996
v 0.647835 0.338116 0.000463
v 0.655117 0.323504 0.015805
v 0.696044 0.442862 0.007809
v 0.667177 0.357164 0.003866
v 0.689867 0.530427 -0.005612
v 0.590034 0.294229 -0.005583
v 0.534090 0.420814 -0.034212
v 0.586805 0.452393 -0.026999
v 0.676287 0.505676 -0.014923
v 0.619758 0.500924 -0.026706
v 0.610021 0.500849 -0.025354
v 0.592625 0.363448 -0.017609
v 0.671600 0.418397 -0.014770
v 0.571791 0.278457 0.004783
v 0.612233 0.293933 0.006969
v 0.631680 0.305699 0.010442
v 0.601967 0.502729 -0.021709
v 0.594638 0.505378 -0.017198
v 0.589765 0.506650 -0.013343
v 0.670118 0.531704 -0.022664
v 0.597145 0.518960 -0.019515
v 0.606089 0.523860 -0.024323
v 0.614942 0.524574 -0.027845
v 0.624476 0.522344 -0.029305
v 0.631004 0.518505 -0.028442
v 0.709999 0.536952 0.014110
v 0.627398 0.503246 -0.026448
v 0.575817 0.400463 -0.029158
v 0.559737 0.427419 -0.036764
v 0.551307 0.405379 -0.029298
v 0.628457 0.320476 -0.000034
v 0.610124 0.306944 -0.002131
v 0.568127 0.286703 -0.005887
v 0.675775 0.345052 0.024442
v 0.590414 0.511789 -0.015164
v 0.556864 0.480603 -0.033068
v 0.591981 0.284090 0.003118
v 0.692203 0.412386 0.009268
v 0.565704 0.369952 -0.018977
v 0.566565 0.364310 -0.020073
v 0.567653 0.356568 -0.021819
v 0.568820 0.347479 -0.020753
v 0.575727 0.333253 -0.014945
v 0.588872 0.370841 -0.020147
v 0.590493 0.372258 -0.021757
v 0.592228 0.373871 -0.023153
v 0.600264 0.381451 -0.025179
v 0.649272 0.411270 -0.025435
v 0.562111 0.494276 -0.025160
v 0.576883 0.520480 -0.012850
v 0.585143 0.518456 -0.013737
v 0.587379 0.369628 -0.018346
v 0.655650 0.377188 -0.011153
v 0.562925 0.521181 -0.020180
v 0.582179 0.321626 -0.011385
v 0.547022 0.487698 -0.035725
v 0.563416 0.459461 -0.035297
v 0.562483 0.314523 -0.008651
v 0.610558 0.347893 -0.013974
v 0.590730 0.423338 -0.025611
v 0.598155 0.332799 -0.012231
v 0.617090 0.423925 -0.032008
v 0.601223 0.409008 -0.027689
v 0.629500 0.401250 -0.028019
v 0.565134 0.299685 -0.009907
v 0.573053 0.451994 -0.031377
v 0.621614 0.336163 -0.008988
v 0.604711 0.321137 -0.007491
v 0.619160 0.365591 -0.019482
v 0.669983 0.394484 -0.008811
v 0.636664 0.361800 -0.015393
v 0.684119 0.383807 0.008854
v 0.612123 0.391243 -0.026652
v 0.566540 0.471570 -0.029786
v 0.553020 0.431914 -0.048271
v 0.564476 0.428463 -0.039850
v 0.544601 0.441761 -0.052705
v 0.583458 0.534062 -0.019702
v 0.599023 0.544149 -0.028066
v 0.614369 0.547115 -0.033685
v 0.628919 0.544477 -0.035668
v 0.641073 0.537095 -0.033914
v 0.651987 0.510116 -0.022553
v 0.698033 0.472445 0.004156
v 0.639616 0.488571 -0.026074
v 0.625824 0.484462 -0.026703
v 0.610782 0.484984 -0.024585
v 0.597973 0.488743 -0.020796
v 0.588394 0.493469 -0.015861
v 0.581342 0.497901 -0.013731
v 0.714643 0.473280 0.036128
v 0.566817 0.425144 -0.034994
v 0.552020 0.468499 -0.040349
v 0.541051 0.431549 -0.051439
v 0.538847 0.424620 -0.044917
v 0.544033 0.428706 -0.047185
v 0.565794 0.421351 -0.029855
v 0.535265 0.424102 -0.046572
v 0.537880 0.421004 -0.035411
v 0.582732 0.507863 -0.010569
v 0.575618 0.505606 -0.012397
v 0.568930 0.503190 -0.016821
v 0.635168 0.515203 -0.026696
v 0.642851 0.523320 -0.028504
v 0.529519 0.511258 0.032336
v 0.539968 0.511136 0.032336
v 0.529598 0.523951 0.032336
v 0.518867 0.511416 0.032336
v 0.529221 0.498915 0.032336
v 0.621515 0.512920 -0.022718
v 0.633550 0.512046 -0.022718
v 0.621643 0.526987 -0.022718
v 0.609535 0.513995 -0.022718
v 0.621367 0.499115 -0.022718
