# https://github.com/mikedh/trimesh
v 0.74108414 0.35382035 -0.02034142
v 0.73266253 0.36023224 -0.01335794
v 0.70229028 0.35428505 -0.02586352
v 0.70767369 0.34637974 -0.03177178
v 0.75792520 0.37550272 -0.00612044
v 0.74576782 0.37292212 -0.00755930
v 0.73026007 0.38398501 -0.01888525
v 0.71968924 0.37713728 -0.02246714
v 0.66921021 0.37993294 -0.02764569
v 0.64332578 0.35781955 -0.02466885
v 0.65996540 0.36083668 -0.02724664
v 0.67332837 0.37392352 -0.02949203
v 0.67868480 0.34692067 -0.03325219
v 0.68086841 0.35645448 -0.03426134
v 0.70191287 0.38467710 -0.02828582
v 0.69868996 0.37584754 -0.02971275
v 0.42365892 0.40124292 0.15331374
v 0.43048628 0.36461576 0.14862626
v 0.44628889 0.45038425 0.13645508
v 0.50974419 0.38545838 0.08235288
v 0.51067548 0.42371831 0.07967026
v 0.52491238 0.51202951 0.07748995
v 0.46747836 0.34905014 0.13058754
v 0.47195981 0.47820716 0.10909850
v 0.44237073 0.37907763 0.13830900
v 0.45925910 0.38140391 0.12716175
v 0.47718958 0.41252379 0.13922527
v 0.43731373 0.40543167 0.13613007
v 0.45602382 0.45354834 0.13316740
v 0.46129837 0.46333275 0.10854176
v 0.47761860 0.39264726 0.11319179
v 0.48425680 0.41551317 0.10646840
v 0.47461684 0.46366107 0.10169340
v 0.81336364 0.52291058 -0.04172952
v 0.78299844 0.53087904 -0.04542355
v 0.79035337 0.51727697 -0.04471226
v 0.77133136 0.56133641 -0.04029684
v 0.76844458 0.57938266 -0.03266398
v 0.71610473 0.54436406 -0.03599776
v 0.70215222 0.54358374 -0.03670403
v 0.70130324 0.53597209 -0.03759446
v 0.71917577 0.53909504 -0.03844730
v 0.72634538 0.55298123 -0.03775016
v 0.71314506 0.55686523 -0.03631950
v 0.75030653 0.51834356 -0.04303818
v 0.74955377 0.53147575 -0.04497677
v 0.73934774 0.57233224 -0.03584543
v 0.74343523 0.55711504 -0.03990060
v 0.77306002 0.54210832 -0.03573807
v 0.74551491 0.54190804 -0.03754113
v 0.77111083 0.54610218 -0.03266439
v 0.74661560 0.54582444 -0.03319494
v 0.79854116 0.35683976 -0.01304644
v 0.78300534 0.32092960 -0.02803770
v 0.68034595 0.54622095 -0.03342197
v 0.70519487 0.56428146 -0.03441923
v 0.76650302 0.58692676 -0.02719302
v 0.73378313 0.57798742 -0.03422175
v 0.62734190 0.35511212 -0.02187044
v 0.65852657 0.39126792 -0.02451071
v 0.77710956 0.37738472 -0.00498100
v 0.75735038 0.34143312 -0.02399914
v 0.71016803 0.33264681 -0.03817675
v 0.71146331 0.30978347 -0.03956863
v 0.67175921 0.33350676 -0.03831874
v 0.65562159 0.31302656 -0.03445358
v 0.61129839 0.33575628 -0.01586530
v 0.70566263 0.39795373 -0.02138874
v 0.74059212 0.39436380 -0.01324542
v 0.79936173 0.45771354 -0.05553143
v 0.80169598 0.43650241 -0.04343403
v 0.79833472 0.47387505 -0.05332969
v 0.80144206 0.48091604 -0.04644155
v 0.78181268 0.47247854 -0.05069147
v 0.78553506 0.47468849 -0.04444177
v 0.76224857 0.47458044 -0.03957156
v 0.77373577 0.47692149 -0.03468100
v 0.75170301 0.48007623 -0.03198458
v 0.77075661 0.48731563 -0.03240173
v 0.78762472 0.50912400 -0.04020060
v 0.79332516 0.49443090 -0.03532751
v 0.81882590 0.48681382 -0.04165136
v 0.79610608 0.48294570 -0.03768697
v 0.77232368 0.45799477 -0.04770020
v 0.77624747 0.44196020 -0.03738356
v 0.75637231 0.46215095 -0.03824687
v 0.72197219 0.64494102 -0.00856690
v 0.69227899 0.64731790 0.01832289
v 0.67236058 0.63385313 0.00553074
v 0.69904284 0.63941082 -0.00627246
v 0.74283955 0.64909046 -0.00657603
v 0.72554939 0.65688314 0.02842625
v 0.66398546 0.61400564 -0.00769384
v 0.69452802 0.61792227 -0.01770873
v 0.72657096 0.61740670 -0.02412483
v 0.75960841 0.61975147 -0.02466972
v 0.68009831 0.52005186 -0.03379066
v 0.70225741 0.48865775 -0.03334123
v 0.72278120 0.50482107 -0.03658362
v 0.59602509 0.59757543 0.03382987
v 0.64414001 0.49067065 -0.02899669
v 0.61602503 0.54236943 -0.00734005
v 0.67867127 0.44290771 -0.03196202
v 0.62323196 0.43638568 -0.03075605
v 0.57712287 0.39905630 -0.00449016
v 0.56726621 0.35629048 0.01380609
v 0.54339516 0.55431182 0.06519945
v 0.57293065 0.51942520 0.01614061
v 0.59384133 0.47308809 -0.01466579
v 0.54868247 0.44254019 0.02535920
v 0.53447068 0.47538197 0.05010785
v 0.75280505 0.45457646 -0.02927562
v 0.75965387 0.50543785 -0.03981904
v 0.55640508 0.30543720 0.04819403
v 0.59080092 0.27630168 0.01890359
v 0.53228491 0.39255493 0.05110519
v 0.79823513 0.40139489 -0.02238227
v 0.77658384 0.40833908 -0.02004618
v 0.75054177 0.41824032 -0.01965937
v 0.52455239 0.35026180 0.07351194
v 0.77595561 0.25041524 -0.01749655
v 0.70315704 0.24693273 -0.01966407
v 0.64580955 0.25749495 -0.00815583
v 0.64933344 0.74574027 0.11791465
v 0.68070430 0.68872578 0.10437478
v 0.58129160 0.72643502 0.12133683
v 0.62107805 0.66768490 0.10559069
v 0.52995824 0.69889757 0.13966335
v 0.56391365 0.63762876 0.12169174
v 0.50033323 0.65797385 0.17056055
v 0.52122017 0.60298455 0.15198803
v 0.60595005 0.62458502 0.07938223
v 0.65410790 0.64648343 0.07121549
v 0.70127165 0.66161249 0.07864929
v 0.54587019 0.57572087 0.10690399
v 0.50242642 0.47854469 0.09588269
v 0.50778770 0.55639769 0.17796737
v 0.52437826 0.53529938 0.12634229
v 0.75359531 0.18004911 0.01523400
v 0.73571140 0.11208999 0.08986507
v 0.70388139 0.08782039 0.17843449
v 0.65667345 0.10627587 0.29094592
v 0.68168908 0.18208709 0.01735020
v 0.65546532 0.13272756 0.07445903
v 0.62620130 0.10584210 0.15991400
v 0.58417568 0.12260039 0.26756931
v 0.61745613 0.20069884 0.03268763
v 0.58735692 0.15925585 0.09226323
v 0.55612552 0.14471518 0.16696762
v 0.54090295 0.14671949 0.24402049
v 0.54381770 0.17167973 0.31449657
v 0.51295700 0.17948190 0.26184737
v 0.60227661 0.16299064 0.35453680
v 0.48406977 0.35006470 0.13610925
v 0.46486257 0.38012624 0.15680443
v 0.49405986 0.35937897 0.10176968
v 0.46821356 0.41376659 0.15933337
v 0.48711366 0.46322927 0.14176393
v 0.50831760 0.49154056 0.12446603
v 0.50492345 0.31903993 0.10283830
v 0.56915908 0.21995910 0.06433564
v 0.48204122 0.30808340 0.14441734
v 0.53118122 0.20039957 0.12153098
v 0.46401943 0.32409653 0.21570326
v 0.50944385 0.18650277 0.18890113
v 0.46383922 0.37747936 0.23222251
v 0.48878379 0.45402348 0.21879188
v 0.50031959 0.49504828 0.20366578
v 0.48148765 0.36269175 0.29561688
v 0.51115383 0.46208696 0.26617114
v 0.52076263 0.51320902 0.24920349
v 0.47744614 0.30687321 0.29051818
v 0.51667769 0.35130924 0.34599396
v 0.54303055 0.46964182 0.30201732
v 0.54381682 0.52960073 0.27933065
v 0.51496165 0.29115808 0.34712745
v 0.55785161 0.34264987 0.38081827
v 0.57717272 0.47204879 0.32990619
v 0.58087926 0.53465705 0.31057868
v 0.56233603 0.28557281 0.38404484
v 0.64442829 0.27773513 0.42906154
v 0.50799549 0.58509911 0.22686430
v 0.49791773 0.39743545 0.09428902
v 0.52240507 0.59328667 0.26137362
v 0.57023489 0.61222932 0.31155983
v 0.48790184 0.37011205 0.10298828
v 0.71662745 0.37574821 -0.01588871
v 0.74384961 0.37233115 -0.00479105
v 0.73159009 0.35966784 -0.01162074
v 0.70117317 0.35402301 -0.02230125
v 0.66618370 0.36016383 -0.02387795
v 0.67651284 0.37130940 -0.02032940
v 0.68048284 0.35660817 -0.02520463
v 0.69721322 0.37486558 -0.02050505
v 0.80362761 0.56538084 -0.03424683
v 0.82773934 0.45877700 -0.05318602
v 0.81407625 0.49291947 -0.03291701
v 0.82220879 0.40436022 -0.02068806
v 0.80966267 0.10926905 0.11072576
v 0.72042195 0.54443801 -0.03036478
v 0.71503729 0.54149102 -0.02798736
v 0.72334280 0.54568053 -0.03016845
v 0.80079762 0.54874228 -0.02198622
v 0.74115880 0.54513877 -0.02504435
v 0.76649683 0.54838953 -0.02656303
v 0.73899418 0.54062310 -0.02948699
v 0.76899159 0.54441965 -0.02997793
v 0.80065856 0.54392147 -0.01998987
v 0.73177461 0.54899966 -0.03599050
v 0.72021982 0.54379729 -0.03516211
v 0.72320603 0.54204324 -0.03681373
v 0.51179950 0.48511516 0.08857810
v 0.43473312 0.42843183 0.14863519
v 0.55967985 0.40362876 0.36635669
v 0.52436803 0.40727751 0.33447394
v 0.49253552 0.41701432 0.28703003
v 0.47681540 0.42452094 0.23180188
v 0.44332393 0.43101933 0.13263664
v 0.47372843 0.43499127 0.12652097
v 0.48218223 0.44260985 0.10633680
v 0.49832392 0.44241510 0.09229172
v 0.47475908 0.43877219 0.15207796
v 0.52490615 0.22247345 0.33368384
v 0.57772230 0.21674311 0.37555382
v 0.50090871 0.25051917 0.13772850
v 0.49007680 0.23348654 0.27712918
v 0.48176695 0.24176757 0.19919604
v 0.52952866 0.26916759 0.08764708
v 0.54485328 0.68626436 0.32465264
v 0.48291887 0.68207800 0.28331657
v 0.44445214 0.68935200 0.22446241
v 0.45496891 0.70692675 0.18329981
v 0.48418515 0.75092203 0.14495542
v 0.54824777 0.77724870 0.12533510
v 0.68903965 0.81356598 0.14049432
v 0.60844626 0.79667230 0.12245697
v 0.80472375 0.54423714 -0.02939589
v 0.82392266 0.35965613 -0.00904799
v 0.82549462 0.43491305 -0.03974816
v 0.64097333 0.47786186 0.36637357
v 0.64286540 0.53706456 0.34325934
v 0.63060548 0.62175859 0.34089681
v 0.80436481 0.54610647 -0.02922627
v 0.75630268 0.66149505 0.04052822
v 0.77308592 0.08534460 0.20270635
v 0.68198214 0.15825827 0.38568174
v 0.89462819 0.36321929 0.03077152
v 0.89381225 0.37009616 0.04028700
v 0.92707281 0.36804470 0.04896364
v 0.92969121 0.35997080 0.04213479
v 0.86582180 0.38210638 0.02979753
v 0.87648730 0.38092279 0.03595608
v 0.89349508 0.39397579 0.03545420
v 0.90574697 0.38852538 0.03946960
v 0.94586781 0.39686619 0.06445015
v 0.96838230 0.37771637 0.08353742
v 0.95736330 0.37904056 0.07175285
v 0.94583634 0.39060325 0.06122244
v 0.95188090 0.36364448 0.05769084
v 0.94853448 0.37283925 0.05484112
v 0.92117303 0.39809715 0.04470360
v 0.92693888 0.38981828 0.04626879
v 0.98292599 0.43546081 0.33947092
v 0.99113446 0.39892073 0.33524301
v 0.96617554 0.48219045 0.30950563
v 0.97781865 0.41410041 0.23815906
v 0.96908260 0.45176653 0.23225929
v 0.93703375 0.53724224 0.21467392
v 0.98182490 0.38052398 0.30179322
v 0.96076844 0.50811154 0.27180625
v 0.98643704 0.41236742 0.31940693
v 0.98190515 0.41338340 0.30113035
v 0.95144511 0.44154028 0.29708689
v 0.98484044 0.43893146 0.31838009
v 0.96070659 0.48442431 0.30115752
v 0.97291371 0.49463303 0.27884054
v 0.97608326 0.42314704 0.27911224
v 0.97028833 0.44525104 0.26825102
v 0.96826593 0.49386239 0.26601238
v 0.83628043 0.53413874 -0.02768662
v 0.83394587 0.51994407 -0.03020091
v 0.83290857 0.56510347 -0.01979839
v 0.82448546 0.58281097 -0.01400856
v 0.87453803 0.55405667 0.01674300
v 0.88548843 0.55479996 0.02432659
v 0.88879015 0.54744242 0.02481786
v 0.87553450 0.54866082 0.01360285
v 0.86610054 0.56153104 0.00877288
v 0.87365300 0.56668460 0.01711187
v 0.86170125 0.52515887 -0.00595622
v 0.86025835 0.53824856 -0.00812444
v 0.85004438 0.57910417 0.00100431
v 0.85413416 0.56388723 -0.00305004
v 0.83325821 0.54579106 -0.01569874
v 0.85483295 0.54859585 -0.00115029
v 0.83130407 0.54978460 -0.01262663
v 0.84970386 0.55213107 0.00112212
v 0.83034628 0.32813072 -0.01276448
v 0.84626602 0.35976110 0.00284062
v 0.87845168 0.32677317 0.00373480
v 0.89826490 0.55955292 0.03912066
v 0.87607722 0.57473543 0.02246559
v 0.81977522 0.59018566 -0.00945931
v 0.85139658 0.58518245 0.00493047
v 0.97867293 0.37661708 0.09508182
v 0.94832420 0.40900452 0.07195914
v 0.85042536 0.38187177 0.01942539
v 0.88876092 0.34947777 0.01974551
v 0.93633577 0.34649282 0.03711107
v 0.94246871 0.32392652 0.03732912
v 0.96432024 0.35141700 0.05907021
v 0.97860072 0.33279942 0.07306024
v 0.99096818 0.35899655 0.11051924
v 0.90970762 0.41044156 0.04653572
v 0.87892883 0.40283014 0.03280573
v 0.85125292 0.46088914 -0.03825801
v 0.84597364 0.43921218 -0.02869476
v 0.84607654 0.47679662 -0.03743769
v 0.83672945 0.48307539 -0.03469524
v 0.85653618 0.47705117 -0.02581764
v 0.84849642 0.47854127 -0.02348326
v 0.86187570 0.48067675 -0.00640744
v 0.84914909 0.48153608 -0.00957728
v 0.86239728 0.48684950 0.00486381
v 0.84686237 0.49197244 -0.00706741
v 0.83467545 0.51200279 -0.02453809
v 0.83068784 0.49671707 -0.02289016
v 0.83346826 0.48523193 -0.02524987
v 0.86503199 0.46366810 -0.01683932
v 0.85857412 0.44699831 -0.00997828
v 0.86844877 0.46900924 -0.00093843
v 0.82296925 0.65111921 0.02505345
v 0.82370591 0.65535758 0.06207280
v 0.85151734 0.64481264 0.06516914
v 0.83946718 0.64800092 0.04047259
v 0.80509863 0.65289893 0.01414904
v 0.78918772 0.66077604 0.04961046
v 0.87289093 0.62678521 0.06184761
v 0.85709378 0.62786698 0.03640707
v 0.83864133 0.62426243 0.01318184
v 0.81426105 0.62309474 -0.00647662
v 0.90562270 0.53384999 0.04128366
v 0.89734298 0.50059449 0.03160030
v 0.88051967 0.51447221 0.01592553
v 0.89550577 0.61589626 0.13352145
v 0.93604912 0.50853159 0.06817584
v 0.92659682 0.56137004 0.09604440
v 0.92561622 0.45801934 0.05024287
v 0.96698898 0.45742199 0.08367558
v 0.99067971 0.42436554 0.13317460
v 0.99531168 0.38248838 0.15629199
v 0.92166820 0.57745334 0.19111765
v 0.94639933 0.54227436 0.14046097
v 0.96663802 0.49589899 0.10943190
v 0.97742952 0.46877490 0.16807891
v 0.96043365 0.50144357 0.19189986
v 0.86626134 0.46151915 0.00849235
v 0.85582598 0.51132210 -0.00780465
v 0.99062851 0.33201499 0.19273318
v 0.99531582 0.30106441 0.15355467
v 0.98311151 0.42014256 0.20117217
v 0.84181631 0.40406211 -0.00787459
v 0.85405981 0.41308057 0.00574481
v 0.87021254 0.42556387 0.02017786
v 0.98295355 0.37831478 0.22609823
v 0.89421654 0.25765648 0.02186979
v 0.95004378 0.26204934 0.06251852
v 0.98050866 0.27798643 0.10325676
v 0.75376486 0.75212925 0.15267823
v 0.75609064 0.69333773 0.12946978
v 0.80605268 0.74018570 0.19615590
v 0.80434850 0.67889701 0.16659832
v 0.83699734 0.71768205 0.24187054
v 0.84190938 0.65463637 0.21423103
v 0.84606774 0.67912539 0.28564708
v 0.85934391 0.62367002 0.26454059
v 0.84662721 0.63930859 0.15949916
v 0.81180002 0.65613026 0.12370855
v 0.76766940 0.66567445 0.10075223
v 0.73404953 0.66601454 0.08801186
v 0.88263228 0.59632267 0.21900379
v 0.94839023 0.50582823 0.24432997
v 0.86178430 0.57805385 0.29580172
v 0.89429769 0.55792952 0.24947760
v 0.83139295 0.17396383 0.03759521
v 0.90434301 0.18928007 0.06541323
v 0.87883275 0.12085303 0.13750466
v 0.84145705 0.09624268 0.22422750
v 0.78594311 0.11418846 0.33397385
v 0.95482103 0.19881102 0.10826686
v 0.94378055 0.15038000 0.17042809
v 0.90757649 0.12306755 0.25357182
v 0.85239552 0.13901826 0.35684751
v 0.98530449 0.22321996 0.15513173
v 0.97314645 0.18287404 0.22067731
v 0.94326908 0.16841399 0.29583112
v 0.89553605 0.16842645 0.36206192
v 0.83345791 0.18940698 0.41090437
v 0.89385195 0.20279478 0.38863003
v 0.76264825 0.17280595 0.40791700
v 0.96523444 0.37950816 0.29627013
v 0.95569572 0.41015859 0.32018314
v 0.98146967 0.38920507 0.26401053
v 0.94246025 0.44278199 0.31719150
v 0.92889258 0.49025643 0.28881630
v 0.91900910 0.51666538 0.26117186
v 0.98334376 0.34831876 0.26208640
v 0.99160689 0.24582013 0.20495297
v 0.97149465 0.33803658 0.30733651
v 0.98124842 0.22794935 0.27133997
v 0.92648422 0.35239516 0.36963774
v 0.94980722 0.21345683 0.33547897
v 0.90003471 0.40416753 0.37741329
v 0.87176983 0.47745365 0.34627286
v 0.86396523 0.51729478 0.32471014
v 0.84301386 0.38481141 0.41595286
v 0.81739600 0.48082202 0.36810677
v 0.80973396 0.53088716 0.34539117
v 0.86454756 0.33055991 0.41936667
v 0.78211491 0.36754981 0.43434596
v 0.76493222 0.48321709 0.37587934
v 0.76572758 0.54317634 0.35319632
v 0.79837004 0.30849985 0.44146096
v 0.72789584 0.35305388 0.43741821
v 0.71819335 0.48067597 0.37684617
v 0.71360954 0.54277694 0.35475949
v 0.73721814 0.29627371 0.44225492
v 0.81703874 0.60400530 0.32973467
v 0.97427854 0.42658322 0.25285297
v 0.77820354 0.60893550 0.34652012
v 0.70020426 0.62018038 0.35482197
v 0.98222421 0.40036029 0.26753008
v 0.90337214 0.38717813 0.04627663
v 0.87595048 0.38041627 0.03918415
v 0.89343028 0.36957398 0.04225403
v 0.92526190 0.36774005 0.05229489
v 0.95043985 0.37756321 0.07074672
v 0.93725723 0.38726889 0.06646889
v 0.94191848 0.37261110 0.06182356
v 0.92130607 0.38858162 0.05409281
v 0.77484058 0.65341617 0.00095254
v 0.63754635 0.33999895 0.42221055
v 0.86709351 0.55341103 0.01846065
v 0.87001002 0.55097193 0.02360142
v 0.86448004 0.55431496 0.01681466
v 0.84770515 0.55165696 0.01042386
v 0.82945709 0.55224123 -0.00560416
v 0.85384385 0.54764932 0.00874527
v 0.83126396 0.54822925 -0.00924809
v 0.86184432 0.55695696 0.00730837
v 0.87104331 0.55302434 0.01504544
v 0.87057117 0.55105875 0.01224257
v 0.94532961 0.51163797 0.23288719
v 0.97119667 0.46125302 0.32720258
v 0.72143219 0.41352476 0.42019692
v 0.77045485 0.42233312 0.41638548
v 0.82710956 0.43748349 0.39839541
v 0.87845523 0.44909308 0.36549121
v 0.97634183 0.46362999 0.31005781
v 0.95767481 0.46459972 0.28760898
v 0.96476305 0.47213497 0.26697120
v 0.96363619 0.47088430 0.24717884
v 0.93657182 0.46702572 0.30579793
v 0.63494217 0.39729424 0.41095688
v 0.66066463 0.21369736 0.41513558
v 0.81937883 0.24049465 0.43170006
v 0.75053289 0.22731869 0.43307431
v 0.97792573 0.27971512 0.29650786
v 0.88478834 0.25764243 0.40851065
v 0.94769812 0.27028343 0.35428422
v 0.98998590 0.29735117 0.24091600
v 0.61086907 0.70118364 0.35198990
v 0.68934522 0.69510402 0.37274918
v 0.76707417 0.69946203 0.37790288
v 0.83787280 0.71342088 0.35542107
v 0.85671277 0.73150504 0.31703050
v 0.85277191 0.77347196 0.26765057
v 0.81381156 0.79349568 0.21373665
v 0.76682011 0.80636146 0.17517703
v 0.79677246 0.58324354 -0.02478591
v 0.79418611 0.58749786 -0.02035184
v 0.82548406 0.47483830 -0.05270607
v 0.81130509 0.51054830 -0.03363190
v 0.78766920 0.62411047 -0.01818704
v 0.83652072 0.25163872 -0.00025593
v 0.71877519 0.69558857 0.11447273
v 0.81168825 0.53146201 -0.04087533
v 0.82177983 0.48283023 -0.04701860
v 0.70264783 0.75992615 0.12895884
v 0.71979037 0.09282095 0.32199312
f 1 4 3
f 1 3 2
f 5 1 2
f 5 2 6
f 7 5 6
f 7 6 8
f 9 12 11
f 9 11 10
f 13 14 3
f 13 3 4
f 10 11 14
f 10 14 13
f 15 16 12
f 15 12 9
f 7 8 16
f 7 16 15
f 25 28 27
f 25 27 26
f 218 219 27
f 218 27 28
f 220 221 183
f 220 183 32
f 31 32 183
f 31 183 186
f 31 26 27
f 31 27 32
f 26 31 186
f 26 186 23
f 25 26 23
f 25 23 18
f 220 32 27
f 220 27 219
f 28 25 18
f 28 18 17
f 213 218 28
f 213 28 17
f 39 42 41
f 39 41 40
f 39 40 44
f 39 44 43
f 45 46 35
f 45 35 36
f 41 42 46
f 41 46 45
f 47 48 43
f 47 43 44
f 38 37 48
f 38 48 47
f 49 35 46
f 49 46 50
f 42 211 50
f 42 50 46
f 39 43 209
f 39 209 210
f 52 48 37
f 52 37 51
f 55 56 44
f 55 44 40
f 56 58 47
f 56 47 44
f 58 57 38
f 58 38 47
f 59 60 9
f 59 9 10
f 61 62 1
f 61 1 5
f 53 54 62
f 53 62 61
f 62 63 4
f 62 4 1
f 54 64 63
f 54 63 62
f 63 65 13
f 63 13 4
f 64 66 65
f 64 65 63
f 65 59 10
f 65 10 13
f 66 67 59
f 66 59 65
f 68 69 7
f 68 7 15
f 69 61 5
f 69 5 7
f 60 68 15
f 60 15 9
f 74 75 73
f 74 73 72
f 76 77 75
f 76 75 74
f 78 79 77
f 78 77 76
f 77 83 73
f 77 73 75
f 81 83 77
f 81 77 79
f 84 70 71
f 84 71 85
f 74 72 70
f 74 70 84
f 76 74 84
f 76 84 86
f 87 90 89
f 87 89 88
f 91 87 88
f 91 88 92
f 89 90 94
f 89 94 93
f 95 94 90
f 95 90 87
f 96 95 87
f 96 87 91
f 55 40 41
f 55 41 97
f 97 41 99
f 97 99 98
f 111 21 212
f 111 212 22
f 101 102 55
f 101 55 97
f 103 101 97
f 103 97 98
f 108 111 22
f 108 22 107
f 102 108 107
f 102 107 100
f 55 102 100
f 55 100 93
f 108 102 101
f 108 101 109
f 93 94 56
f 93 56 55
f 109 101 103
f 109 103 104
f 110 111 108
f 110 108 109
f 105 110 109
f 105 109 104
f 112 86 84
f 112 84 85
f 99 41 45
f 99 45 113
f 113 45 36
f 113 36 80
f 212 159 138
f 212 138 22
f 116 21 111
f 116 111 110
f 106 116 110
f 106 110 105
f 112 78 76
f 112 76 86
f 118 85 71
f 118 71 117
f 119 112 85
f 119 85 118
f 80 81 79
f 80 79 113
f 98 99 78
f 98 78 112
f 99 113 79
f 99 79 78
f 112 119 103
f 112 103 98
f 116 120 20
f 116 20 21
f 116 106 114
f 116 114 120
f 121 122 64
f 121 64 54
f 122 123 66
f 122 66 64
f 123 115 67
f 123 67 66
f 126 124 125
f 126 125 127
f 128 126 127
f 128 127 129
f 130 128 129
f 130 129 131
f 132 133 88
f 132 88 89
f 133 134 92
f 133 92 88
f 133 127 125
f 133 125 134
f 132 129 127
f 132 127 133
f 100 132 89
f 100 89 93
f 135 132 100
f 135 100 107
f 135 131 129
f 135 129 132
f 168 171 182
f 168 182 137
f 22 138 135
f 22 135 107
f 138 137 131
f 138 131 135
f 144 143 139
f 144 139 140
f 145 144 140
f 145 140 141
f 146 145 141
f 146 141 142
f 148 147 143
f 148 143 144
f 149 148 144
f 149 144 145
f 150 149 145
f 150 145 146
f 151 152 150
f 151 150 146
f 153 151 146
f 153 146 142
f 154 155 18
f 154 18 23
f 186 156 154
f 186 154 23
f 155 157 17
f 155 17 18
f 222 158 19
f 222 19 213
f 24 159 212
f 24 212 136
f 158 159 24
f 158 24 19
f 162 154 156
f 162 156 160
f 148 163 161
f 148 161 147
f 225 162 160
f 225 160 228
f 164 155 154
f 164 154 162
f 149 165 163
f 149 163 148
f 151 153 224
f 151 224 223
f 227 164 162
f 227 162 225
f 217 167 158
f 217 158 222
f 168 137 138
f 168 138 159
f 167 168 159
f 167 159 158
f 164 166 157
f 164 157 155
f 216 170 167
f 216 167 217
f 170 171 168
f 170 168 167
f 172 169 166
f 172 166 164
f 226 172 164
f 226 164 227
f 215 174 170
f 215 170 216
f 174 175 171
f 174 171 170
f 176 173 169
f 176 169 172
f 223 176 172
f 223 172 226
f 214 178 174
f 214 174 215
f 178 179 175
f 178 175 174
f 180 177 173
f 180 173 176
f 224 180 176
f 224 176 223
f 223 226 152
f 223 152 151
f 165 149 150
f 165 150 152
f 152 226 227
f 152 227 165
f 163 165 227
f 163 227 225
f 131 137 182
f 131 182 130
f 184 182 171
f 184 171 175
f 185 184 175
f 185 175 179
f 232 130 182
f 232 182 231
f 6 188 187
f 6 187 8
f 2 189 188
f 2 188 6
f 3 190 189
f 3 189 2
f 12 192 191
f 12 191 11
f 14 193 190
f 14 190 3
f 11 191 193
f 11 193 14
f 16 194 192
f 16 192 12
f 8 187 194
f 8 194 16
f 209 202 201
f 209 201 210
f 50 206 207
f 50 207 49
f 52 204 202
f 52 202 209
f 51 205 204
f 51 204 52
f 211 200 206
f 211 206 50
f 210 201 200
f 210 200 211
f 48 52 209
f 48 209 43
f 210 211 42
f 210 42 39
f 82 83 81
f 82 81 197
f 57 58 95
f 57 95 96
f 94 95 58
f 94 58 56
f 161 163 225
f 161 225 228
f 114 115 161
f 114 161 228
f 183 20 156
f 183 156 186
f 20 120 160
f 20 160 156
f 213 19 29
f 213 29 218
f 19 24 30
f 19 30 29
f 29 30 219
f 29 219 218
f 33 30 24
f 33 24 136
f 33 220 219
f 33 219 30
f 220 33 136
f 220 136 221
f 157 222 213
f 157 213 17
f 166 217 222
f 166 222 157
f 169 216 217
f 169 217 166
f 173 215 216
f 173 216 169
f 177 214 215
f 177 215 173
f 183 221 21
f 183 21 20
f 136 212 21
f 136 21 221
f 67 115 114
f 67 114 106
f 59 67 106
f 59 106 105
f 105 104 60
f 105 60 59
f 104 103 68
f 104 68 60
f 103 119 69
f 103 69 68
f 61 69 119
f 61 119 118
f 228 160 120
f 228 120 114
f 53 61 118
f 53 118 117
f 147 161 115
f 147 115 123
f 143 147 123
f 143 123 122
f 139 143 122
f 139 122 121
f 184 185 229
f 184 229 230
f 182 184 230
f 182 230 231
f 128 130 232
f 128 232 233
f 126 128 233
f 126 233 234
f 124 126 234
f 124 234 236
f 240 241 179
f 240 179 178
f 242 185 179
f 242 179 241
f 243 203 205
f 243 205 51
f 49 207 208
f 49 208 237
f 51 37 195
f 51 195 243
f 70 196 239
f 70 239 71
f 239 198 117
f 239 117 71
f 141 140 199
f 141 199 245
f 238 53 117
f 238 117 198
f 247 248 249
f 247 249 250
f 251 252 248
f 251 248 247
f 253 254 252
f 253 252 251
f 255 256 257
f 255 257 258
f 259 250 249
f 259 249 260
f 256 259 260
f 256 260 257
f 261 255 258
f 261 258 262
f 253 261 262
f 253 262 254
f 271 272 273
f 271 273 274
f 459 274 273
f 459 273 460
f 461 278 429
f 461 429 462
f 277 432 429
f 277 429 278
f 277 278 273
f 277 273 272
f 272 269 432
f 272 432 277
f 271 264 269
f 271 269 272
f 461 460 273
f 461 273 278
f 274 263 264
f 274 264 271
f 454 263 274
f 454 274 459
f 284 285 286
f 284 286 287
f 284 288 289
f 284 289 285
f 290 281 280
f 290 280 291
f 286 290 291
f 286 291 287
f 292 289 288
f 292 288 293
f 283 292 293
f 283 293 282
f 294 295 291
f 294 291 280
f 287 291 295
f 287 295 452
f 284 451 450
f 284 450 288
f 297 296 282
f 297 282 293
f 301 285 289
f 301 289 302
f 302 289 292
f 302 292 304
f 304 292 283
f 304 283 303
f 305 256 255
f 305 255 306
f 307 251 247
f 307 247 308
f 299 307 308
f 299 308 300
f 308 247 250
f 308 250 309
f 300 308 309
f 300 309 310
f 309 250 259
f 309 259 311
f 310 309 311
f 310 311 312
f 311 259 256
f 311 256 305
f 312 311 305
f 312 305 313
f 314 261 253
f 314 253 315
f 315 253 251
f 315 251 307
f 306 255 261
f 306 261 314
f 320 318 319
f 320 319 321
f 322 320 321
f 322 321 323
f 324 322 323
f 324 323 325
f 323 321 319
f 323 319 328
f 327 325 323
f 327 323 328
f 329 330 317
f 329 317 316
f 320 329 316
f 320 316 318
f 322 331 329
f 322 329 320
f 332 333 334
f 332 334 335
f 336 337 333
f 336 333 332
f 334 338 339
f 334 339 335
f 340 332 335
f 340 335 339
f 341 336 332
f 341 332 340
f 301 342 286
f 301 286 285
f 342 343 344
f 342 344 286
f 356 268 453
f 356 453 267
f 346 342 301
f 346 301 347
f 348 343 342
f 348 342 346
f 353 352 268
f 353 268 356
f 347 345 352
f 347 352 353
f 301 338 345
f 301 345 347
f 353 354 346
f 353 346 347
f 338 301 302
f 338 302 339
f 354 349 348
f 354 348 346
f 355 354 353
f 355 353 356
f 350 349 354
f 350 354 355
f 357 330 329
f 357 329 331
f 344 358 290
f 344 290 286
f 358 326 281
f 358 281 290
f 453 268 384
f 453 384 406
f 361 355 356
f 361 356 267
f 351 350 355
f 351 355 361
f 357 331 322
f 357 322 324
f 363 362 317
f 363 317 330
f 364 363 330
f 364 330 357
f 326 358 325
f 326 325 327
f 343 357 324
f 343 324 344
f 344 324 325
f 344 325 358
f 357 343 348
f 357 348 364
f 361 267 266
f 361 266 365
f 361 365 359
f 361 359 351
f 366 300 310
f 366 310 367
f 367 310 312
f 367 312 368
f 368 312 313
f 368 313 360
f 371 372 370
f 371 370 369
f 373 374 372
f 373 372 371
f 375 376 374
f 375 374 373
f 377 334 333
f 377 333 378
f 378 333 337
f 378 337 379
f 378 379 370
f 378 370 372
f 377 378 372
f 377 372 374
f 345 338 334
f 345 334 377
f 381 352 345
f 381 345 377
f 381 377 374
f 381 374 376
f 415 383 428
f 415 428 418
f 268 352 381
f 268 381 384
f 384 381 376
f 384 376 383
f 391 387 386
f 391 386 390
f 392 388 387
f 392 387 391
f 393 389 388
f 393 388 392
f 395 391 390
f 395 390 394
f 396 392 391
f 396 391 395
f 397 393 392
f 397 392 396
f 398 393 397
f 398 397 399
f 400 389 393
f 400 393 398
f 401 269 264
f 401 264 402
f 432 269 401
f 432 401 403
f 402 264 263
f 402 263 404
f 463 454 265
f 463 265 405
f 270 382 453
f 270 453 406
f 405 265 270
f 405 270 406
f 409 407 403
f 409 403 401
f 395 394 408
f 395 408 410
f 468 471 407
f 468 407 409
f 411 409 401
f 411 401 402
f 396 395 410
f 396 410 412
f 398 466 467
f 398 467 400
f 470 468 409
f 470 409 411
f 458 463 405
f 458 405 414
f 415 406 384
f 415 384 383
f 414 405 406
f 414 406 415
f 411 402 404
f 411 404 413
f 457 458 414
f 457 414 417
f 417 414 415
f 417 415 418
f 419 411 413
f 419 413 416
f 469 470 411
f 469 411 419
f 456 457 417
f 456 417 421
f 421 417 418
f 421 418 422
f 423 419 416
f 423 416 420
f 466 469 419
f 466 419 423
f 455 456 421
f 455 421 425
f 425 421 422
f 425 422 426
f 427 423 420
f 427 420 424
f 467 466 423
f 467 423 427
f 466 398 399
f 466 399 469
f 412 399 397
f 412 397 396
f 399 412 470
f 399 470 469
f 410 468 470
f 410 470 412
f 376 375 428
f 376 428 383
f 430 422 418
f 430 418 428
f 431 426 422
f 431 422 430
f 476 475 428
f 476 428 375
f 252 254 433
f 252 433 434
f 248 252 434
f 248 434 435
f 249 248 435
f 249 435 436
f 258 257 437
f 258 437 438
f 260 249 436
f 260 436 439
f 257 260 439
f 257 439 437
f 262 258 438
f 262 438 440
f 254 262 440
f 254 440 433
f 450 451 444
f 450 444 445
f 295 294 449
f 295 449 448
f 297 450 445
f 297 445 446
f 296 297 446
f 296 446 447
f 452 295 448
f 452 448 443
f 451 452 443
f 451 443 444
f 293 288 450
f 293 450 297
f 451 284 287
f 451 287 452
f 303 341 340
f 303 340 304
f 339 302 304
f 339 304 340
f 408 471 468
f 408 468 410
f 359 471 408
f 359 408 360
f 429 432 403
f 429 403 266
f 266 403 407
f 266 407 365
f 454 459 275
f 454 275 265
f 265 275 276
f 265 276 270
f 275 459 460
f 275 460 276
f 279 382 270
f 279 270 276
f 279 276 460
f 279 460 461
f 461 462 382
f 461 382 279
f 404 263 454
f 404 454 463
f 413 404 463
f 413 463 458
f 416 413 458
f 416 458 457
f 420 416 457
f 420 457 456
f 424 420 456
f 424 456 455
f 442 424 455
f 442 455 464
f 429 266 267
f 429 267 462
f 382 462 267
f 382 267 453
f 313 351 359
f 313 359 360
f 305 350 351
f 305 351 313
f 350 305 306
f 350 306 349
f 349 306 314
f 349 314 348
f 348 314 315
f 348 315 364
f 307 363 364
f 307 364 315
f 471 359 365
f 471 365 407
f 299 362 363
f 299 363 307
f 394 368 360
f 394 360 408
f 390 367 368
f 390 368 394
f 386 366 367
f 386 367 390
f 430 474 473
f 430 473 431
f 428 475 474
f 428 474 430
f 373 477 476
f 373 476 375
f 371 478 477
f 371 477 373
f 369 479 478
f 369 478 371
f 303 283 480
f 303 480 481
f 481 484 341
f 481 341 303
f 485 298 300
f 485 300 366
f 379 380 486
f 379 486 370
f 318 482 488
f 318 488 319
f 484 441 336
f 484 336 341
f 369 370 486
f 369 486 489
f 385 485 366
f 385 366 386
f 465 181 180
f 465 180 224
f 140 139 385
f 140 385 199
f 181 442 177
f 181 177 180
f 442 464 214
f 442 214 177
f 298 54 53
f 298 53 238
f 57 481 480
f 57 480 38
f 481 57 96
f 481 96 484
f 80 36 34
f 80 34 483
f 485 121 54
f 485 54 298
f 134 125 486
f 134 486 380
f 246 465 224
f 246 224 153
f 35 487 34
f 35 34 36
f 37 38 480
f 37 480 195
f 237 487 35
f 237 35 49
f 72 73 488
f 72 488 482
f 483 197 81
f 483 81 80
f 70 72 482
f 70 482 196
f 82 488 73
f 82 73 83
f 441 91 92
f 441 92 244
f 484 96 91
f 484 91 441
f 124 489 486
f 124 486 125
f 134 380 244
f 134 244 92
f 142 141 245
f 142 245 490
f 246 153 142
f 246 142 490
f 464 240 178
f 464 178 214
f 385 139 121
f 385 121 485
f 185 242 472
f 185 472 229
f 489 124 236
f 489 236 235
f 465 467 427
f 465 427 181
f 82 197 327
f 82 327 328
f 387 199 385
f 387 385 386
f 181 427 424
f 181 424 442
f 298 238 299
f 298 299 300
f 326 483 34
f 326 34 281
f 246 400 467
f 246 467 465
f 240 425 426
f 240 426 241
f 242 241 426
f 242 426 431
f 243 296 447
f 243 447 203
f 294 237 208
f 294 208 449
f 280 281 34
f 280 34 487
f 282 195 480
f 282 480 283
f 237 294 280
f 237 280 487
f 296 243 195
f 296 195 282
f 316 317 239
f 316 239 196
f 483 326 327
f 483 327 197
f 316 196 482
f 316 482 318
f 82 328 319
f 82 319 488
f 441 244 337
f 441 337 336
f 239 317 362
f 239 362 198
f 379 337 244
f 379 244 380
f 388 245 199
f 388 199 387
f 389 490 245
f 389 245 388
f 246 490 389
f 246 389 400
f 464 455 425
f 464 425 240
f 238 198 362
f 238 362 299
f 431 473 472
f 431 472 242
f 489 235 479
f 489 479 369

